<?xml version="1.0" encoding="utf-8"?>
<!-- Uploaded to: SVG Repo, www.svgrepo.com, Generator: SVG Repo Mixer Tools -->
<!DOCTYPE svg PUBLIC "-//W3C//DTD SVG 1.1//EN" "http://www.w3.org/Graphics/SVG/1.1/DTD/svg11.dtd">
<svg fill="#f8f8f8" width="800px" height="800px" viewBox="0 0 1000 1000" version="1.1" xmlns="http://www.w3.org/2000/svg" xmlns:xlink="http://www.w3.org/1999/xlink"  enable-background="new 0 0 1000 1000" xml:space="preserve">

<g>

<g transform="translate(0.000000,511.000000) scale(0.100000,-0.100000)">

<path d="M6421.6,4890.1l-119.9-122l267.1-267.1l269.2-269.2H5023.2H3210.4v-178.8v-178.8h1812.8H6838L6564.6,3601l-273.4-273.4l126.2-126.2l126.2-126.2l487.9,487.9l490,490l-477.4,477.4c-262.9,265-483.7,479.5-490,479.5C6547.8,5010,6488.9,4955.3,6421.6,4890.1z"/>

<path d="M7683.5,2103.6c-27.3-37.9-281.8-387-561.5-773.9c-281.8-386.9-527.8-725.5-546.8-750.8c-35.8-46.3-37.9-44.2-115.7,136.7c-44.2,101-82,185.1-84.1,187.2c-2.1,4.2-172.5,21-380.6,37.9c-206.1,18.9-395.4,37.9-418.5,42.1c-29.4,6.3-65.2,63.1-122,195.6l-79.9,187.2l-351.2,56.8c-193.5,31.5-372.2,63.1-397.5,69.4c-31.5,6.3-65.2,58.9-124.1,187.2c-44.2,98.8-86.2,183-94.6,189.3c-8.4,4.2-193.5,27.3-410.1,52.6c-380.6,40-395.4,40-429,4.2c-21-21-349.1-469-729.7-994.7L2146.2-26.7l-271.3-980l-269.2-982.1l-250.3-342.8c-136.7-189.3-246-349.1-243.9-357.5c4.2-8.4,67.3-58.9,140.9-113.6c124.1-92.5,134.6-94.6,159.8-58.9c16.8,21,140.9,191.4,277.6,380.6l248.2,340.7l271.3,984.2l269.2,982.1l637.2,872.7l635.1,872.7l145.1-4.2c187.2-6.3,275.5-23.1,288.1-54.7c6.3-12.6,44.2-96.7,84.1-187.2l75.7-159.8l-84.1-113.6c-140.9-185.1-140.9-170.3,10.5-277.6c73.6-54.7,138.8-96.7,147.2-96.7c8.4,0,73.6,92.5,149.3,206.1l134.6,208.2l216.6-29.4c117.8-16.8,216.6-31.5,216.6-33.6c2.1-2.1,40-86.2,84.1-187.2l79.9-182.9l-77.8-111.5c-42.1-61-109.4-155.6-149.3-208.2l-71.5-96.7l134.6-98.8c75.7-54.7,145.1-96.7,155.6-92.5c10.5,4.2,111.5,132.5,225,288.1l204,279.7l159.8-14.7c241.8-21,254.5-25.2,298.6-128.3c21-50.5,58.9-134.6,79.9-185.1l42.1-94.6L6089.4-91.9C5940-298,5887.5-386.3,5902.2-405.2c12.6-14.7,75.7-63.1,143-109.4l119.9-86.2l862.2,1188.2c473.2,654,868.5,1192.4,879.1,1198.7c8.4,4.2,105.1,4.2,214.5-4.2l195.6-14.7l77.8-172.4c42.1-92.5,82-180.9,86.2-191.4c6.3-12.6-633-906.4-1419.5-1987.3c-784.4-1081-1421.6-1968.4-1413.2-1972.6c6.3-2.1,460.5,195.6,1007.3,437.4l994.7,441.6l166.1-119.9l168.2-122l-12.6-136.7c-29.5-302.8,37.9-246.1-635.1-544.7l-593-265l-288.1-262.9c-157.7-145.1-321.8-292.3-363.8-330.2c-77.8-67.3-82-67.3-931.6-204c-469-73.6-862.2-140.9-874.8-147.2c-46.3-29.4-572-776-555.2-790.7c35.7-31.5,256.6-189.3,267.1-189.3c4.2,0,115.7,147.2,246.1,326c143,195.6,254.5,330.2,279.7,336.5c25.2,6.3,408,67.3,851.7,136.7l807.6,126.2l170.4,155.6c94.6,86.2,267.1,243.9,386.9,351.2l216.6,197.7l658.3,290.2l658.2,292.3l35.8,359.6c18.9,199.8,39.9,384.9,44.2,414.3c8.4,46.3-25.2,77.8-304.9,279.7c-172.5,124.1-328.1,231.3-344.9,237.6c-18.9,6.3-241.9-79.9-508.9-199.8c-262.9-117.8-479.5-210.3-483.7-208.2c-2.1,4.2,485.8,683.5,1087.2,1510c599.4,826.5,1091.5,1512.1,1091.5,1522.6c0,16.8-313.3,731.8-326,746.6c-8.4,8.4-708.7,84.1-782.3,86.2C7752.8,2170.9,7712.9,2143.6,7683.5,2103.6z"/>

</g>

</g>
</svg>